<svg xmlns="http://www.w3.org/2000/svg" viewBox="0 -0.5 96 96" shape-rendering="crispEdges">
<metadata>Made with Pixels to Svg https://codepen.io/shshaw/pen/XbxvNj</metadata>
<path stroke="#202020" d="M15 0h22M59 0h22M15 1h22M59 1h22M15 2h22M59 2h22M15 3h22M59 3h22M15 4h22M59 4h22M15 5h22M59 5h22M15 6h22M59 6h22M7 7h8M37 7h7M52 7h7M81 7h8M7 8h8M37 8h7M52 8h7M81 8h8M7 9h8M37 9h7M52 9h7M81 9h8M7 10h8M37 10h7M52 10h7M81 10h8M7 11h8M37 11h7M52 11h7M81 11h8M7 12h8M37 12h7M52 12h7M81 12h8M7 13h8M37 13h7M52 13h7M81 13h8M7 14h8M37 14h7M52 14h7M81 14h8M0 15h7M44 15h8M89 15h7M0 16h7M44 16h8M89 16h7M0 17h7M44 17h8M89 17h7M0 18h7M44 18h8M89 18h7M0 19h7M44 19h8M89 19h7M0 20h7M44 20h8M89 20h7M0 21h7M44 21h8M89 21h7M0 22h7M89 22h7M0 23h7M89 23h7M0 24h7M89 24h7M0 25h7M89 25h7M0 26h7M89 26h7M0 27h7M89 27h7M0 28h7M89 28h7M0 29h7M89 29h7M0 30h7M89 30h7M0 31h7M89 31h7M0 32h7M89 32h7M0 33h7M89 33h7M0 34h7M89 34h7M0 35h7M89 35h7M0 36h7M89 36h7M0 37h7M89 37h7M0 38h7M89 38h7M0 39h7M89 39h7M0 40h7M89 40h7M0 41h7M89 41h7M0 42h7M89 42h7M0 43h7M89 43h7M0 44h7M89 44h7M0 45h7M89 45h7M0 46h7M89 46h7M0 47h7M89 47h7M0 48h7M89 48h7M0 49h7M89 49h7M0 50h7M89 50h7M0 51h7M89 51h7M7 52h8M81 52h8M7 53h8M81 53h8M7 54h8M81 54h8M7 55h8M81 55h8M7 56h8M81 56h8M7 57h8M81 57h8M7 58h8M81 58h8M15 59h7M74 59h7M15 60h7M74 60h7M15 61h7M74 61h7M15 62h7M74 62h7M15 63h7M74 63h7M15 64h7M74 64h7M15 65h7M74 65h7M22 66h8M66 66h8M22 67h8M66 67h8M22 68h8M66 68h8M22 69h8M66 69h8M22 70h8M66 70h8M22 71h8M66 71h8M22 72h8M66 72h8M22 73h8M66 73h8M30 74h7M59 74h7M30 75h7M59 75h7M30 76h7M59 76h7M30 77h7M59 77h7M30 78h7M59 78h7M30 79h7M59 79h7M30 80h7M59 80h7M37 81h7M52 81h7M37 82h7M52 82h7M37 83h7M52 83h7M37 84h7M52 84h7M37 85h7M52 85h7M37 86h7M52 86h7M37 87h7M52 87h7M37 88h7M52 88h7M44 89h8M44 90h8M44 91h8M44 92h8M44 93h8M44 94h8M44 95h8" />
<path stroke="#a01982" d="M15 7h7M15 8h7M15 9h7M15 10h7M15 11h7M15 12h7M15 13h7M15 14h7M7 15h8M7 16h8M7 17h8M7 18h8M7 19h8M7 20h8M7 21h8M52 52h14M52 53h14M52 54h14M52 55h14M52 56h14M52 57h14M52 58h14M44 59h22M44 60h22M44 61h22M44 62h22M44 63h22M44 64h22M44 65h22M37 66h29M37 67h29M37 68h29M37 69h29M37 70h29M37 71h29M37 72h29M37 73h29M37 74h15M37 75h15M37 76h15M37 77h15M37 78h15M37 79h15M37 80h15" />
<path stroke="#ff50bf" d="M22 7h8M59 7h22M22 8h8M59 8h22M22 9h8M59 9h22M22 10h8M59 10h22M22 11h8M59 11h22M22 12h8M59 12h22M22 13h8M59 13h22M22 14h8M59 14h22M15 15h7M52 15h22M81 15h8M15 16h7M52 16h22M81 16h8M15 17h7M52 17h22M81 17h8M15 18h7M52 18h22M81 18h8M15 19h7M52 19h22M81 19h8M15 20h7M52 20h22M81 20h8M15 21h7M52 21h22M81 21h8M7 22h8M44 22h22M74 22h7M7 23h8M44 23h22M74 23h7M7 24h8M44 24h22M74 24h7M7 25h8M44 25h22M74 25h7M7 26h8M44 26h22M74 26h7M7 27h8M44 27h22M74 27h7M7 28h8M44 28h22M74 28h7M7 29h8M44 29h22M74 29h7M37 30h22M66 30h8M37 31h22M66 31h8M37 32h22M66 32h8M37 33h22M66 33h8M37 34h22M66 34h8M37 35h22M66 35h8M37 36h22M66 36h8M30 37h22M59 37h7M30 38h22M59 38h7M30 39h22M59 39h7M30 40h22M59 40h7M30 41h22M59 41h7M30 42h22M59 42h7M30 43h22M59 43h7M22 44h22M52 44h7M81 44h8M22 45h22M52 45h7M81 45h8M22 46h22M52 46h7M81 46h8M22 47h22M52 47h7M81 47h8M22 48h22M52 48h7M81 48h8M22 49h22M52 49h7M81 49h8M22 50h22M52 50h7M81 50h8M22 51h22M52 51h7M81 51h8M15 52h22M44 52h8M74 52h7M15 53h22M44 53h8M74 53h7M15 54h22M44 54h8M74 54h7M15 55h22M44 55h8M74 55h7M15 56h22M44 56h8M74 56h7M15 57h22M44 57h8M74 57h7M15 58h22M44 58h8M74 58h7M22 59h8M37 59h7M66 59h8M22 60h8M37 60h7M66 60h8M22 61h8M37 61h7M66 61h8M22 62h8M37 62h7M66 62h8M22 63h8M37 63h7M66 63h8M22 64h8M37 64h7M66 64h8M22 65h8M37 65h7M66 65h8M30 66h7M30 67h7M30 68h7M30 69h7M30 70h7M30 71h7M30 72h7M30 73h7M52 74h7M52 75h7M52 76h7M52 77h7M52 78h7M52 79h7M52 80h7M44 81h8M44 82h8M44 83h8M44 84h8M44 85h8M44 86h8M44 87h8M44 88h8" />
<path stroke="#c80078" d="M30 7h7M30 8h7M30 9h7M30 10h7M30 11h7M30 12h7M30 13h7M30 14h7M22 15h22M74 15h7M22 16h22M74 16h7M22 17h22M74 17h7M22 18h22M74 18h7M22 19h22M74 19h7M22 20h22M74 20h7M22 21h22M74 21h7M15 22h29M66 22h8M81 22h8M15 23h29M66 23h8M81 23h8M15 24h29M66 24h8M81 24h8M15 25h29M66 25h8M81 25h8M15 26h29M66 26h8M81 26h8M15 27h29M66 27h8M81 27h8M15 28h29M66 28h8M81 28h8M15 29h29M66 29h8M81 29h8M7 30h30M59 30h7M74 30h15M7 31h30M59 31h7M74 31h15M7 32h30M59 32h7M74 32h15M7 33h30M59 33h7M74 33h15M7 34h30M59 34h7M74 34h15M7 35h30M59 35h7M74 35h15M7 36h30M59 36h7M74 36h15M7 37h23M52 37h7M66 37h23M7 38h23M52 38h7M66 38h23M7 39h23M52 39h7M66 39h23M7 40h23M52 40h7M66 40h23M7 41h23M52 41h7M66 41h23M7 42h23M52 42h7M66 42h23M7 43h23M52 43h7M66 43h23M7 44h15M44 44h8M59 44h22M7 45h15M44 45h8M59 45h22M7 46h15M44 46h8M59 46h22M7 47h15M44 47h8M59 47h22M7 48h15M44 48h8M59 48h22M7 49h15M44 49h8M59 49h22M7 50h15M44 50h8M59 50h22M7 51h15M44 51h8M59 51h22M37 52h7M66 52h8M37 53h7M66 53h8M37 54h7M66 54h8M37 55h7M66 55h8M37 56h7M66 56h8M37 57h7M66 57h8M37 58h7M66 58h8M30 59h7M30 60h7M30 61h7M30 62h7M30 63h7M30 64h7M30 65h7" />
</svg>